<svg width="120" height="120" viewBox="0 0 120 100" fill="none" xmlns="http://www.w3.org/2000/svg">
<g clip-path="url(#clip0_46_2)">
<path d="M36.91 0C44.95 0 53 0 61.05 0C64.06 0 66.85 0.58 69.29 2.59C74.07 6.54 75.1 13.22 71.47 18.25C70.05 20.21 68.46 22.04 66.93 23.91C63.6 27.98 60.25 32.03 56.93 36.1C55.09 38.36 53.32 40.68 50.49 41.82C49.18 42.35 47.82 42.7 46.39 42.7C34.69 42.7 22.98 42.75 11.28 42.69C5.26 42.66 0.280002 37.8 0.140002 31.71C-0.0199982 24.97 0.0800018 18.22 0.0900018 11.47C0.0900018 10.2 0.260002 8.94 0.730002 7.75C2.39 3.53 5.42 0.93 9.93 0.18C10.92 0.02 11.96 0.02 12.97 0.02C20.95 0.01 28.93 0.02 36.9 0.02L36.91 0Z" fill="url(#paint0_linear_46_2)"/>
<path d="M36.49 96.38C28.58 96.38 20.67 96.36 12.76 96.39C10.26 96.4 7.84 96.14 5.69 94.78C2.36 92.69 0.289995 89.72 0.159995 85.74C-0.0600049 78.61 -0.0600049 71.47 0.159995 64.34C0.309995 59.59 4.05999 55.31 8.68999 54.13C9.89999 53.82 11.1 53.72 12.34 53.72C23.34 53.72 34.34 53.73 45.35 53.72C49.22 53.72 52.39 55.2 54.81 58.18C58.92 63.25 62.97 68.36 67.04 73.45C68.5 75.28 70.12 76.99 71.33 79.01C75.15 85.36 71.87 93.05 65.81 95.56C64.19 96.23 62.49 96.4 60.76 96.39C56.72 96.37 52.68 96.39 48.63 96.38C44.59 96.38 40.55 96.38 36.5 96.38H36.49Z" fill="url(#paint1_linear_46_2)"/>
<path d="M119.9 50.33C120.21 48.93 120.23 47.52 119.9 46.12C120 45.62 119.98 45.13 119.81 44.65C119.94 44.1 119.89 43.59 119.46 43.18C119.55 42.88 119.5 42.6 119.34 42.34C119.5 41.47 119.05 40.71 118.82 39.94C118.45 38.73 118.18 37.44 117.25 36.48C117.3 36.36 117.27 36.28 117.16 36.22C117.04 35.59 116.66 35.08 116.33 34.56C115.4 33.05 114.49 31.52 113.03 30.43C111.4 28.38 109.42 26.79 107.04 25.69C106.89 25.31 106.55 25.27 106.21 25.23C104.77 24.11 103.11 23.53 101.33 23.26C101.26 23.25 101.19 23.24 101.11 23.23C100.86 22.84 100.52 22.71 100.08 22.84C99.89 22.69 99.68 22.66 99.45 22.74C98.94 22.4 98.4 22.18 97.77 22.33C97.64 22.23 97.5 22.22 97.35 22.29C96.02 21.94 94.65 21.82 93.31 21.95C91.63 22.11 89.87 21.88 88.29 22.73C88.06 22.65 87.85 22.69 87.66 22.84C87.02 22.63 86.5 23.07 85.98 23.25C84.39 23.81 82.68 24.17 81.38 25.37C81.26 25.32 81.17 25.35 81.12 25.47C80.68 25.41 80.43 25.78 80.13 25.97C77.27 27.79 74.67 29.9 72.84 32.82L72.8 32.88C71.56 34.2 70.75 35.78 70.16 37.47C70.05 37.54 70.02 37.63 70.08 37.74C69.17 39.13 68.67 40.66 68.56 42.32C68.44 42.45 68.42 42.59 68.5 42.75C67.86 44.02 67.85 45.38 67.97 46.75C67.77 47.59 67.75 48.43 67.96 49.26C67.68 51.39 68.23 53.43 68.76 55.45C69.05 56.58 69.23 57.79 70.08 58.7C70.03 58.81 70.05 58.9 70.16 58.97C70.06 59.44 70.43 59.75 70.6 60.09C71.33 61.52 71.95 63.03 73.25 64.08C73.58 64.98 74.22 65.61 75 66.12C75.06 66.35 75.2 66.49 75.43 66.55C76.14 67.46 76.86 68.36 77.95 68.84L77.98 68.92H78.06C78.38 69.42 78.84 69.75 79.42 69.9L79.46 69.98H79.55C79.66 70.28 79.87 70.46 80.22 70.42C81.79 71.75 83.7 72.43 85.58 73.12C89.6 74.58 93.77 74.67 97.94 74.13C99.76 73.89 101.63 73.65 103.22 72.58C103.4 72.64 103.55 72.62 103.67 72.46C105.07 71.95 106.49 71.47 107.62 70.43L107.68 70.4C108.2 70.25 108.69 70.06 108.92 69.5H108.93C110.15 69.09 110.99 68.17 111.85 67.29C112.12 67.23 112.2 66.99 112.32 66.79C112.62 66.79 112.76 66.65 112.74 66.35C112.94 66.35 113.02 66.26 113.01 66.07C113.51 65.81 113.87 65.43 114.02 64.88L114.06 64.8C114.35 64.72 114.59 64.59 114.58 64.23L114.67 64.2V64.11C115.88 63.06 116.51 61.64 117.17 60.24C117.28 60.18 117.31 60.09 117.25 59.98C118.51 58.22 119.06 56.22 119.34 54.11C119.51 53.85 119.55 53.57 119.46 53.27C119.88 52.85 119.92 52.34 119.82 51.8C119.99 51.32 120 50.83 119.91 50.33H119.9ZM97.54 30.52C99.8 31.39 102.11 32.1 104.12 33.58C104.93 34.18 105.65 34.96 106.62 35.34C106.81 35.38 106.97 35.44 107.1 35.52C106.97 35.43 106.81 35.38 106.62 35.35C106.68 35.83 107.05 36.03 107.41 36.24C108.11 37.18 108.8 38.13 109.5 39.07C109.46 39.34 109.56 39.51 109.84 39.55C110.42 41.09 110.99 42.63 111.57 44.17C111.49 44.32 111.49 44.47 111.6 44.61C111.41 44.98 111.54 45.37 111.62 45.73C111.98 47.42 111.97 49.11 111.61 50.8C111.55 51.06 111.45 51.34 111.63 51.61C111.52 51.76 111.51 51.91 111.6 52.07C111.04 52.83 111.07 53.79 110.74 54.63C109.62 57.41 107.91 59.74 105.63 61.7C102.19 64.65 98.2 66.17 93.7 66.13C87.9 66.07 83.22 63.59 79.69 59.03C75.59 53.75 75.12 47.88 77.21 41.72C77.9 39.68 79.18 37.92 80.46 36.2C80.66 36.07 80.87 35.95 80.95 35.7C81.19 35.62 81.35 35.47 81.39 35.21C82.23 34.75 82.88 34.06 83.61 33.46C83.69 33.38 83.77 33.3 83.85 33.22C85.53 32.34 87.21 31.46 89.06 30.97C89.17 30.94 89.23 30.78 89.32 30.68C89.48 30.73 89.62 30.69 89.75 30.58C90.71 30.66 91.61 30.4 92.5 30.08C93.35 30.19 94.2 30.18 95.04 30.08C95.71 30.39 96.41 30.51 97.15 30.47C97.28 30.58 97.41 30.59 97.56 30.53L97.54 30.52Z" fill="url(#paint2_linear_46_2)"/>
</g>
<defs>
<linearGradient id="paint0_linear_46_2" x1="0.0500018" y1="21.36" x2="73.65" y2="21.36" gradientUnits="userSpaceOnUse">
<stop stop-color="#43164E"/>
<stop offset="1" stop-color="#AB1F5D"/>
</linearGradient>
<linearGradient id="paint1_linear_46_2" x1="-4.88278e-06" y1="75.06" x2="72.96" y2="75.06" gradientUnits="userSpaceOnUse">
<stop stop-color="#43164E"/>
<stop offset="1" stop-color="#AB1F5D"/>
</linearGradient>
<linearGradient id="paint2_linear_46_2" x1="67.79" y1="48.18" x2="120.14" y2="48.18" gradientUnits="userSpaceOnUse">
<stop stop-color="#43164E"/>
<stop offset="1" stop-color="#AB1F5D"/>
</linearGradient>
<clipPath id="clip0_46_2">
<rect width="120.14" height="96.39" fill="white"/>
</clipPath>
</defs>
</svg>
